name D:\school\WTK\thesis\model\3dpredictsim\Results\batch_windlass\Pog_s1_tmt_bCst_d05_k1000_WL30_ig24.mot
datacolumns 128
datarows 4
range 0.52569772 0.55723958
endheader
time	pelvis_tilt	pelvis_list	pelvis_rotation	pelvis_tx	pelvis_ty	pelvis_tz	hip_flexion_l	hip_adduction_l	hip_rotation_l	hip_flexion_r	hip_adduction_r	hip_rotation_r	knee_angle_l	knee_angle_r	ankle_angle_l	ankle_angle_r	subtalar_angle_l	subtalar_angle_r	tmt_angle_l	tmt_angle_r	mtp_angle_l	mtp_angle_r	lumbar_extension	lumbar_bending	lumbar_rotation	arm_flex_l	arm_add_l	arm_rot_l	arm_flex_r	arm_add_r	arm_rot_r	elbow_flex_l	elbow_flex_r	pro_sup_l	pro_sup_r	glut_med1_l/activation	glut_med2_l/activation	glut_med3_l/activation	glut_min1_l/activation	glut_min2_l/activation	glut_min3_l/activation	semimem_l/activation	semiten_l/activation	bifemlh_l/activation	bifemsh_l/activation	sar_l/activation	add_long_l/activation	add_brev_l/activation	add_mag1_l/activation	add_mag2_l/activation	add_mag3_l/activation	tfl_l/activation	pect_l/activation	grac_l/activation	glut_max1_l/activation	glut_max2_l/activation	glut_max3_l/activation	iliacus_l/activation	psoas_l/activation	quad_fem_l/activation	gem_l/activation	peri_l/activation	rect_fem_l/activation	vas_med_l/activation	vas_int_l/activation	vas_lat_l/activation	med_gas_l/activation	lat_gas_l/activation	soleus_l/activation	tib_post_l/activation	flex_dig_l/activation	flex_hal_l/activation	tib_ant_l/activation	per_brev_l/activation	per_long_l/activation	per_tert_l/activation	ext_dig_l/activation	ext_hal_l/activation	ercspn_l/activation	intobl_l/activation	extobl_l/activation	glut_med1_r/activation	glut_med2_r/activation	glut_med3_r/activation	glut_min1_r/activation	glut_min2_r/activation	glut_min3_r/activation	semimem_r/activation	semiten_r/activation	bifemlh_r/activation	bifemsh_r/activation	sar_r/activation	add_long_r/activation	add_brev_r/activation	add_mag1_r/activation	add_mag2_r/activation	add_mag3_r/activation	tfl_r/activation	pect_r/activation	grac_r/activation	glut_max1_r/activation	glut_max2_r/activation	glut_max3_r/activation	iliacus_r/activation	psoas_r/activation	quad_fem_r/activation	gem_r/activation	peri_r/activation	rect_fem_r/activation	vas_med_r/activation	vas_int_r/activation	vas_lat_r/activation	med_gas_r/activation	lat_gas_r/activation	soleus_r/activation	tib_post_r/activation	flex_dig_r/activation	flex_hal_r/activation	tib_ant_r/activation	per_brev_r/activation	per_long_r/activation	per_tert_r/activation	ext_dig_r/activation	ext_hal_r/activation	ercspn_r/activation	intobl_r/activation	extobl_r/activation	
          0.52569772	         -2.91978437	          1.40561668	         -5.32937963	          0.65712214	          0.86039780	          0.00084909	         30.77291088	          2.15789248	         -3.00828814	        -17.46170074	         -1.32244802	          6.83213332	        -17.99155476	        -10.00511036	          2.60034799	          0.25724547	          2.12040099	         12.66899631	         -0.17123931	         -8.72144444	          0.59087044	         28.35423375	         -0.89164287	          0.21853147	          1.79444969	         -8.87327168	        -13.53473117	          7.95103612	          5.03732323	        -13.47464263	         15.86064218	         16.76337194	         32.34910224	         86.51662706	         86.51662706	          0.05280317	          0.05000092	          0.23661121	          0.05876162	          0.05876161	          0.05000015	          0.05000002	          0.05000003	          0.05876161	          0.05000001	          0.05000027	          0.10901577	          0.26688906	          0.20456888	          0.16473482	          0.12540122	          0.05000001	          0.08116018	          0.05000013	          0.05000006	          0.05000016	          0.15870467	          0.05876172	          0.05286598	          0.22067694	          0.18709138	          0.11708713	          0.06634446	          0.18859988	          0.18450221	          0.15766827	          0.05293329	          0.05000078	          0.05460150	          0.05000000	          0.05000003	          0.05000005	          0.60068149	          0.27188509	          0.15746694	          0.46325788	          0.57578189	          0.26813148	          0.05000001	          0.09809091	          0.10986119	          0.27118472	          0.08115989	          0.05000018	          0.25658367	          0.17151908	          0.08129409	          0.05000010	          0.05000001	          0.05000001	          0.05935169	          0.07685633	          0.11880730	          0.13791232	          0.05000039	          0.05000025	          0.05000003	          0.23520737	          0.10259313	          0.05000045	          0.05000020	          0.05000011	          0.05000007	          0.25316922	          0.48978159	          0.05000004	          0.05000008	          0.05000005	          0.17183440	          0.14808316	          0.07458884	          0.09507726	          0.24845125	          0.32063284	          0.20242249	          0.18871603	          0.16494038	          0.23106788	          0.05000000	          0.09588103	          0.16293629	          0.05000001	          0.05000000	          0.05000001	          0.05000000	          0.05814874	          0.05000000	
          0.53621167	         -2.90792585	          1.48369392	         -5.56673472	          0.67322756	          0.85933168	          0.00067413	         30.06306864	          2.48393728	         -2.73103306	        -17.24209613	         -1.58272972	          6.62074994	        -18.11947030	        -11.98020054	          2.15422977	         -0.69506949	          1.58478677	         13.45648529	         -0.26950477	         -9.14352070	          0.79737348	         29.03155634	         -0.67945530	         -0.01908141	          1.84926241	         -9.84561066	        -13.53505431	          7.77430044	          4.78433016	        -13.49951762	         16.11523113	         16.66171563	         33.25288568	         86.51662706	         86.51662706	          0.05000000	          0.05000000	          0.20133140	          0.05000000	          0.05000000	          0.05000001	          0.05000000	          0.05000002	          0.05000001	          0.05000000	          0.05000011	          0.09276103	          0.22709469	          0.31109981	          0.24681523	          0.14663987	          0.05000006	          0.06905893	          0.09685727	          0.08236160	          0.10210417	          0.13504110	          0.05000009	          0.05315744	          0.31624993	          0.15919520	          0.09962891	          0.05876164	          0.22918927	          0.22682688	          0.19521467	          0.05876163	          0.05876156	          0.05000000	          0.05000000	          0.05876151	          0.05000021	          0.51111718	          0.25438440	          0.15066045	          0.42467932	          0.52818893	          0.22815185	          0.05000000	          0.08346510	          0.09348038	          0.23074984	          0.06905858	          0.05000007	          0.21832589	          0.14594480	          0.06917277	          0.05000067	          0.05000009	          0.05000024	          0.05050208	          0.06539674	          0.20308416	          0.32518403	          0.06906058	          0.05876203	          0.13196333	          0.20013690	          0.08729611	          0.05000057	          0.05000106	          0.05000126	          0.05876133	          0.21542053	          0.45397923	          0.05876158	          0.05876098	          0.05000003	          0.14621311	          0.12600341	          0.15482319	          0.14657527	          0.21140603	          0.27282501	          0.17224037	          0.16057761	          0.14034702	          0.19661461	          0.09410987	          0.08158474	          0.14554667	          0.05000001	          0.12161079	          0.05000015	          0.05315109	          0.05876163	          0.06905854	
          0.54672562	         -2.89320893	          1.57065870	         -5.77676529	          0.68947669	          0.85813309	          0.00051490	         29.17675480	          2.77446862	         -2.42151356	        -16.93808531	         -1.83454307	          6.39996031	        -18.48324788	        -14.11997921	          2.04098414	         -1.67382528	          1.00489980	         14.16823304	         -0.53646677	         -9.37291362	          0.89093907	         29.10048406	         -0.45874707	         -0.27334715	          1.89282043	        -10.79581000	        -13.54644037	          7.68033149	          4.47614408	        -13.52951796	         16.31488059	         16.54245980	         34.14616766	         86.51662706	         86.51662706	          0.27396437	          0.30354791	          0.45272585	          0.34214951	          0.19554682	          0.31980217	          0.07735549	          0.09544301	          0.08254804	          0.06905862	          0.05000024	          0.07892994	          0.19323384	          0.26471341	          0.21001396	          0.13389622	          0.05000003	          0.05876203	          0.09538170	          0.21250708	          0.16656719	          0.11490592	          0.05876160	          0.05000006	          0.26909563	          0.13545849	          0.24217274	          0.05000001	          0.21254757	          0.24012543	          0.19975432	          0.05000001	          0.05000001	          0.05462465	          0.05000001	          0.05000004	          0.05000008	          0.62815350	          0.21645452	          0.12819629	          0.45403137	          0.57010451	          0.33264236	          0.05307374	          0.08595958	          0.07954203	          0.26637319	          0.05876163	          0.05000000	          0.25138832	          0.12418377	          0.05885880	          0.05000023	          0.05000001	          0.05000000	          0.05000002	          0.05876147	          0.18305405	          0.27669762	          0.05876335	          0.05000041	          0.11228702	          0.23679930	          0.07427995	          0.05000003	          0.05000006	          0.05000003	          0.05000002	          0.18531315	          0.43592883	          0.05000000	          0.05000001	          0.05000000	          0.12441207	          0.10721573	          0.13173835	          0.12472023	          0.17988442	          0.23214555	          0.14655854	          0.13663475	          0.11942065	          0.16729848	          0.15886463	          0.14616000	          0.15494784	          0.26839717	          0.20825504	          0.11871780	          0.07885776	          0.05000000	          0.05876160	
          0.55723958	         -2.87813898	          1.65998915	         -5.95293292	          0.70559563	          0.85690414	          0.00033725	         28.24193645	          3.06481290	         -2.11561589	        -16.50742246	         -2.07106757	          6.17552981	        -18.80663646	        -16.47270140	          2.02950987	         -2.61926610	          0.38711427	         14.79729897	         -0.71874163	         -9.24383751	          1.08466762	         28.19120526	         -0.25573574	         -0.53424648	          1.92665328	        -11.66038032	        -13.56209177	          7.68098267	          4.16278466	        -13.56373267	         16.48304387	         16.36964104	         34.98618477	         86.51662706	         86.51662706	          0.39195699	          0.46009875	          0.54937503	          0.29113352	          0.42523107	          0.42487988	          0.06582146	          0.09684331	          0.07023981	          0.05876167	          0.05000002	          0.06716112	          0.16442179	          0.22524345	          0.18498123	          0.16378797	          0.05000002	          0.05000039	          0.08115989	          0.31206210	          0.23070368	          0.17185511	          0.05000000	          0.05000000	          0.22897224	          0.11526102	          0.20606370	          0.05000000	          0.30950827	          0.32656662	          0.27441681	          0.05000000	          0.05000000	          0.05000000	          0.08684389	          0.05000074	          0.05000008	          0.69194067	          0.18418016	          0.10908163	          0.44474090	          0.56176653	          0.41581080	          0.06848076	          0.07314262	          0.06768195	          0.22665573	          0.05000003	          0.05000001	          0.21390518	          0.10566741	          0.05008270	          0.05001759	          0.05000007	          0.05000016	          0.05000001	          0.05000009	          0.21266345	          0.23544077	          0.05000150	          0.08596015	          0.11209535	          0.23891989	          0.06320449	          0.05000011	          0.05000047	          0.05000041	          0.05000098	          0.15768211	          0.39501635	          0.05000002	          0.05000016	          0.05000007	          0.10586167	          0.09926431	          0.11209564	          0.10884386	          0.15306283	          0.19753159	          0.12470599	          0.12424825	          0.10161452	          0.14235355	          0.17798431	          0.12436689	          0.13184441	          0.22837795	          0.21781342	          0.10101647	          0.11332563	          0.05000000	          0.05000000	
